<?xml version="1.0" standalone="no"?><!DOCTYPE svg PUBLIC "-//W3C//DTD SVG 1.1//EN" "http://www.w3.org/Graphics/SVG/1.1/DTD/svg11.dtd"><svg t="1696946182705" class="icon" viewBox="0 0 1024 1024" version="1.1" xmlns="http://www.w3.org/2000/svg" p-id="71736" xmlns:xlink="http://www.w3.org/1999/xlink" width="200" height="200"><path d="M180.705882 60.235294h662.588236a60.235294 60.235294 0 0 1 60.235294 60.235294v650.586353a60.235294 60.235294 0 0 1-17.859765 42.797177l-133.812706 132.487529A60.235294 60.235294 0 0 1 709.481412 963.764706H180.705882a60.235294 60.235294 0 0 1-60.235294-60.235294V120.470588a60.235294 60.235294 0 0 1 60.235294-60.235294z" fill="#FFEEB1" opacity=".2" p-id="71737"></path><path d="M777.637647 135.529412A50.597647 50.597647 0 0 1 828.235294 186.127059v542.042353a50.597647 50.597647 0 0 1-14.45647 35.388235l-107.384471 109.718588A50.597647 50.597647 0 0 1 670.238118 888.470588H246.362353A50.597647 50.597647 0 0 1 195.764706 837.872941V186.127059A50.597647 50.597647 0 0 1 246.362353 135.529412h531.275294zM481.882353 602.352941h-120.470588a30.117647 30.117647 0 1 0 0 60.235294h120.470588a30.117647 30.117647 0 1 0 0-60.235294z m180.705882-150.588235H361.411765a30.117647 30.117647 0 1 0 0 60.235294h301.17647a30.117647 30.117647 0 1 0 0-60.235294z m0-150.588235H361.411765a30.117647 30.117647 0 1 0 0 60.235294h301.17647a30.117647 30.117647 0 1 0 0-60.235294z" fill="#FFEEB1" opacity=".363" p-id="71738"></path></svg>