<svg xmlns="http://www.w3.org/2000/svg" xmlns:xlink="http://www.w3.org/1999/xlink" viewBox="0 0 255.12 255.12"><defs><style>.cls-1{fill:url(#未命名的渐变_52);}.cls-2{fill:url(#未命名的渐变_15);}.cls-3{fill:#ffeeb1;}</style><linearGradient id="未命名的渐变_52" x1="109.76" y1="-213.03" x2="109.76" y2="-468.15" gradientTransform="translate(237.32 -213.03) rotate(180)" gradientUnits="userSpaceOnUse"><stop offset="0" stop-color="#ffe048" stop-opacity="0.34"/><stop offset="1" stop-color="#fff17e" stop-opacity="0.1"/></linearGradient><linearGradient id="未命名的渐变_15" x1="109.76" y1="-213.03" x2="109.76" y2="-468.15" gradientTransform="translate(237.32 -213.03) rotate(180)" gradientUnits="userSpaceOnUse"><stop offset="0" stop-color="#ffdb75" stop-opacity="0.87"/><stop offset="1" stop-opacity="0"/></linearGradient></defs><g id="图层_2" data-name="图层 2"><g id="图层_1-2" data-name="图层 1"><circle class="cls-1" cx="127.56" cy="127.56" r="127.56"/><circle class="cls-2" cx="127.56" cy="127.56" r="127.56"/><path class="cls-3" d="M86.26,106.84a6.88,6.88,0,0,1,6.88,6.88v27.54a6.89,6.89,0,0,1-13.77,0V113.72a6.88,6.88,0,0,1,6.89-6.88ZM113.79,79.3a6.89,6.89,0,0,1,6.88,6.89v82.6a6.88,6.88,0,1,1-13.76,0V86.19a6.88,6.88,0,0,1,6.88-6.89Zm27.54,17.21a6.88,6.88,0,0,1,6.88,6.89v48.19a6.88,6.88,0,1,1-13.76,0V103.4a6.88,6.88,0,0,1,6.88-6.89Zm27.53,10.33a6.88,6.88,0,0,1,6.89,6.88v31a6.89,6.89,0,0,1-13.77,0v-31a6.88,6.88,0,0,1,6.88-6.88Z"/></g></g></svg>