<svg xmlns="http://www.w3.org/2000/svg" xmlns:xlink="http://www.w3.org/1999/xlink" viewBox="0 0 255.12 255.12"><defs><style>.cls-1{fill:url(#未命名的渐变_52);}.cls-2{fill:url(#未命名的渐变_15);}.cls-3{fill:#ffeeb1;}</style><linearGradient id="未命名的渐变_52" x1="102.52" y1="-210.94" x2="102.52" y2="-466.06" gradientTransform="translate(230.08 -210.94) rotate(180)" gradientUnits="userSpaceOnUse"><stop offset="0" stop-color="#ffe048" stop-opacity="0.34"/><stop offset="1" stop-color="#fff17e" stop-opacity="0.1"/></linearGradient><linearGradient id="未命名的渐变_15" x1="102.52" y1="-210.94" x2="102.52" y2="-466.06" gradientTransform="translate(230.08 -210.94) rotate(180)" gradientUnits="userSpaceOnUse"><stop offset="0" stop-color="#ffdb75" stop-opacity="0.87"/><stop offset="1" stop-opacity="0"/></linearGradient></defs><g id="图层_2" data-name="图层 2"><g id="图层_1-2" data-name="图层 1"><circle class="cls-1" cx="127.56" cy="127.56" r="127.56"/><circle class="cls-2" cx="127.56" cy="127.56" r="127.56"/><path class="cls-3" d="M131.17,170.08H145.6a3.54,3.54,0,1,1,0,7.08H109.52a3.54,3.54,0,1,1,0-7.08H124v-7.25C103.72,161,87.87,144.35,87.87,124a3.61,3.61,0,0,1,7.22,0c0,17.61,14.54,31.89,32.47,31.89S160,141.63,160,124a3.61,3.61,0,0,1,7.21,0c0,20.33-15.84,37-36.07,38.81ZM127.56,78a25,25,0,0,1,25.26,24.81V124a25.26,25.26,0,0,1-50.52,0V102.76A25,25,0,0,1,127.56,78Z"/></g></g></svg>