<?xml version="1.0" encoding="UTF-8"?>
<svg width="20px" height="20px" viewBox="0 0 20 20" version="1.1" xmlns="http://www.w3.org/2000/svg" xmlns:xlink="http://www.w3.org/1999/xlink">
    <title>放大</title>
    <g id="AR实景" stroke="none" stroke-width="1" fill="none" fill-rule="evenodd">
        <g id="1.2地图页面-天气展开" transform="translate(-1865.000000, -928.000000)">
            <g id="AR地图控制" transform="translate(1766.000000, 840.000000)">
                <g id="放大缩小" transform="translate(94.000000, 64.000000)">
                    <g id="放大" transform="translate(5.000000, 24.000000)">
                        <rect id="20" fill="#000000" opacity="0" x="0" y="0" width="20" height="20"></rect>
                        <path d="M10.6638836,9.20048915 L10.6638836,5.31617069 C10.6643677,5.2321709 10.631213,5.15147137 10.5718152,5.09207357 C10.5124174,5.03267577 10.4317179,4.99952107 10.3477181,5 L9.66118739,5 C9.57718761,4.99952107 9.49648808,5.03267577 9.43709027,5.09207357 C9.37769247,5.15147137 9.34453777,5.2321709 9.34502193,5.31617069 L9.34502193,9.20048915 C9.34623265,9.25679361 9.32502031,9.31127168 9.28605395,9.35193224 C9.24708759,9.39259279 9.19356107,9.4161031 9.13725606,9.41728833 L5.31617069,9.41728833 C5.2321709,9.41680416 5.15147137,9.44995886 5.09207357,9.50935666 C5.03267577,9.56875447 4.99952107,9.649454 5,9.73345378 L5,10.4380511 C5.0019582,10.6118491 5.1423727,10.7522636 5.31617069,10.7542165 L9.13725606,10.7542165 C9.19265643,10.753227 9.24607937,10.7747987 9.28525959,10.8139789 C9.32443981,10.8531591 9.34601147,10.9065821 9.34502193,10.9619824 L9.34502193,14.8553342 C9.34697491,15.0291322 9.48738941,15.1695467 9.66118739,15.1714996 L10.3477181,15.1714996 C10.5215161,15.1695467 10.6619306,15.0291322 10.6638836,14.8553342 L10.6638836,10.9619824 C10.662894,10.9065821 10.6844657,10.8531591 10.7236459,10.8139789 C10.7628261,10.7747987 10.8162491,10.753227 10.8716494,10.7542165 L14.6927348,10.7542165 C14.8646483,10.7512467 15.0018803,10.6099784 14.999867,10.4380511 L14.999867,9.73345378 C15.0023095,9.65044364 14.9710326,9.5699824 14.9131672,9.51041516 C14.8553019,9.45084793 14.7757809,9.4172524 14.6927348,9.41728833 L10.8716494,9.41728833 C10.8153444,9.4161031 10.7618179,9.39259279 10.7228515,9.35193224 C10.6838852,9.31127168 10.6626728,9.25679361 10.6638836,9.20048915 Z" id="放大icon" fill="#8D9FB8"></path>
                    </g>
                </g>
            </g>
        </g>
    </g>
</svg>