<?xml version="1.0" encoding="UTF-8"?>
<svg width="20px" height="20px" viewBox="0 0 20 20" version="1.1" xmlns="http://www.w3.org/2000/svg" xmlns:xlink="http://www.w3.org/1999/xlink">
    <title>缩小</title>
    <g id="AR实景" stroke="none" stroke-width="1" fill="none" fill-rule="evenodd">
        <g id="1.1地图页面" transform="translate(-1865.000000, -950.000000)">
            <g id="AR地图控制" transform="translate(1766.000000, 840.000000)">
                <g id="放大缩小" transform="translate(94.000000, 64.000000)">
                    <g id="缩小" transform="translate(5.000000, 46.000000)">
                        <rect id="20" fill="#000000" opacity="0" x="0" y="0" width="20" height="20"></rect>
                        <path d="M5.42803184,10.5740352 C5.18030461,10.5593619 4.99004315,10.3488598 5.00040379,10.1009148 L5.00040379,9.4731204 C4.99004315,9.22517535 5.18030461,9.01467331 5.42803184,9 L14.5628949,9 C14.6835815,9.00473076 14.7974333,9.05725977 14.8793555,9.14600883 C14.9612777,9.23475789 15.0045453,9.35244148 14.9996214,9.4731204 L14.9996214,10.1009148 C15.0045453,10.2215937 14.9612777,10.3392773 14.8793555,10.4280263 C14.7974333,10.5167754 14.6835815,10.5693044 14.5628949,10.5740352 L5.42803184,10.5740352 Z" id="缩小icon" fill="#8D9FB8"></path>
                    </g>
                </g>
            </g>
        </g>
    </g>
</svg>